<!--?xml version="1.0" standalone="no"?--><svg version="1.0" xmlns="http://www.w3.org/2000/svg" width="240.000000pt" height="300.000000pt" viewBox="0 0 240.000000 300.000000" preserveAspectRatio="xMidYMid meet">
<metadata>
  <rdf:rdf xmlns:rdf="http://www.w3.org/1999/02/22-rdf-syntax-ns#" xmlns:rdfs="http://www.w3.org/2000/01/rdf-schema#" xmlns:dc="http://purl.org/dc/elements/1.1/">
    <rdf:description dc:title="Christmas hat  black" dc:publisher="Hiox" dc:date="2015-12-16" dc:format="image/svg+xml" dc:language="en">
      <dc:creator>
        <rdf:bag>
          <rdf:li>svgimages.com</rdf:li>
        </rdf:bag>
      </dc:creator>
    </rdf:description>
  </rdf:rdf>
</metadata>
<g transform="translate(0.000000,300.000000) scale(0.100000,-0.100000)" fill="#232323" stroke="none">
<path d="M1096 2329 c-137 -20 -281 -72 -383 -138 -76 -49 -172 -138 -203
-190 -14 -22 -29 -41 -35 -41 -5 0 -23 13 -40 29 -26 25 -40 29 -103 34 l-73
4 -49 -41 c-37 -31 -50 -48 -50 -68 0 -16 -4 -28 -10 -28 -5 0 -25 -20 -43
-45 -30 -39 -34 -52 -32 -94 1 -27 10 -64 20 -82 10 -19 21 -40 25 -48 3 -8
20 -19 36 -24 16 -6 33 -17 38 -25 25 -43 41 -49 126 -47 45 2 87 8 93 14 6 6
24 11 40 11 20 0 45 14 78 40 40 34 49 48 54 84 4 26 2 52 -4 64 -6 11 -8 33
-5 50 6 28 8 29 94 40 114 16 160 15 160 0 -1 -7 -20 -34 -44 -60 -23 -27 -60
-77 -81 -113 -34 -59 -40 -65 -71 -65 -38 0 -144 -62 -144 -84 0 -7 -9 -21
-20 -31 -12 -11 -20 -31 -20 -51 0 -18 -5 -36 -11 -40 -7 -4 -9 -23 -6 -48 2
-22 1 -52 -2 -66 -6 -18 1 -41 26 -85 32 -59 43 -68 93 -79 14 -3 33 -19 42
-36 14 -24 24 -30 51 -30 23 0 41 -8 58 -26 13 -15 44 -36 69 -47 25 -11 62
-35 82 -53 33 -30 117 -64 157 -64 40 0 96 -24 129 -56 45 -42 103 -61 200
-63 53 -2 86 -9 125 -26 43 -21 67 -25 146 -25 71 0 108 -5 153 -22 59 -21 61
-21 152 -4 60 11 109 15 143 11 46 -7 57 -4 122 30 52 28 81 50 102 82 37 53
62 111 54 123 -4 6 1 20 9 32 18 25 21 64 6 73 -5 3 -10 30 -10 59 0 42 -8 69
-38 127 -35 69 -40 75 -78 83 l-41 9 -22 126 c-12 69 -27 155 -33 191 -22 135
-81 287 -149 387 -163 237 -557 389 -883 342z m352 -78 c143 -40 235 -80 339
-148 101 -66 152 -124 202 -228 35 -72 54 -125 46 -125 -2 0 -15 20 -29 45
-55 93 -201 225 -249 225 -29 0 -19 -14 48 -74 79 -69 141 -155 195 -267 47
-98 90 -259 90 -336 l0 -53 -25 16 c-20 13 -38 15 -79 10 -39 -4 -62 -2 -85
10 -22 11 -44 14 -71 9 -27 -5 -54 -1 -84 10 -37 14 -51 15 -80 5 -28 -9 -41
-8 -63 3 -18 8 -43 11 -71 7 -33 -5 -46 -3 -59 12 -9 10 -27 18 -41 18 -13 0
-40 9 -58 20 -27 17 -46 20 -112 18 l-80 -3 -51 48 c-60 56 -104 77 -162 77
-26 0 -50 7 -66 20 -14 11 -35 20 -46 20 -30 0 -97 22 -97 32 0 5 9 27 20 48
31 61 120 141 209 189 77 42 96 59 69 62 -38 5 -85 -4 -122 -23 l-41 -20 31
33 c46 52 56 67 50 78 -12 18 -65 -10 -105 -55 -23 -26 -44 -42 -53 -39 -7 3
-49 -4 -92 -15 -44 -11 -101 -20 -128 -20 -48 0 -49 1 -67 43 l-19 42 66 60
c141 130 291 227 412 267 46 15 79 17 200 14 124 -3 161 -8 258 -35z m-1048
-306 c8 -7 30 -20 48 -29 20 -10 38 -29 44 -47 5 -16 19 -34 29 -40 21 -11 25
-39 8 -56 -9 -9 -8 -18 5 -37 28 -44 17 -94 -27 -118 -22 -12 -85 -26 -142
-32 -16 -2 -42 -8 -57 -14 -34 -14 -55 -7 -63 19 -4 11 -22 27 -41 36 -19 9
-34 20 -34 25 0 18 -2 24 -22 56 l-21 34 23 46 c13 26 32 53 42 60 10 7 18 23
18 35 0 11 14 35 30 52 29 30 34 31 88 27 31 -2 64 -10 72 -17z m485 -415 c25
-20 54 -32 87 -36 38 -5 58 -15 86 -42 49 -46 89 -62 159 -62 46 0 68 -6 108
-30 28 -16 64 -30 80 -30 17 0 41 -7 54 -16 15 -11 36 -15 64 -12 23 3 57 0
76 -7 24 -8 46 -8 72 -1 30 8 45 6 77 -8 27 -12 50 -15 75 -11 26 5 48 2 73
-10 27 -13 49 -16 85 -11 38 5 54 2 81 -14 20 -12 51 -20 77 -20 38 0 48 -5
92 -49 52 -53 55 -61 38 -110 -9 -26 -8 -35 5 -50 20 -22 20 -45 0 -62 -11 -9
-14 -22 -9 -46 8 -46 -36 -108 -116 -163 -60 -41 -64 -42 -121 -36 -34 4 -90
2 -134 -5 -73 -13 -76 -12 -128 14 -47 24 -64 27 -151 27 -93 0 -102 2 -166
35 -64 33 -73 35 -167 35 l-98 0 -48 50 -48 50 -76 0 -76 0 -42 46 c-26 28
-57 49 -79 55 -21 6 -55 29 -76 51 -33 32 -44 38 -67 34 -23 -5 -30 -1 -49 28
-16 25 -32 37 -58 42 -28 5 -39 15 -60 51 -26 47 -32 78 -16 87 5 3 11 23 14
43 13 92 26 128 54 150 15 13 36 31 45 41 14 14 38 17 131 19 113 3 115 2 152
-27z" id="node1" class="node"></path>
<path d="M1486 913 c-11 -11 16 -44 52 -62 47 -24 108 -36 258 -52 135 -14
232 -4 311 31 61 27 56 43 -9 33 -29 -4 -114 -7 -188 -7 -128 1 -173 8 -402
58 -9 2 -19 1 -22 -1z" id="node2" class="node"></path>
</g>
<g transform="translate(0.000000,300.000000) scale(0.100000,-0.100000)" fill="#E5C3BA" stroke="none">




</g>
</svg>