<?xml version="1.0" encoding="UTF-8" standalone="no"?>
<svg
   xmlns:dc="http://purl.org/dc/elements/1.1/"
   xmlns:cc="http://creativecommons.org/ns#"
   xmlns:rdf="http://www.w3.org/1999/02/22-rdf-syntax-ns#"
   xmlns:svg="http://www.w3.org/2000/svg"
   xmlns="http://www.w3.org/2000/svg"
   xmlns:sodipodi="http://sodipodi.sourceforge.net/DTD/sodipodi-0.dtd"
   xmlns:inkscape="http://www.inkscape.org/namespaces/inkscape"
   width="112.0117mm"
   height="126.76249mm"
   viewBox="0 0 112.0117 126.76249"
   version="1.1"
   id="svg188"
   sodipodi:docname="santa-taco-web.svg"
   inkscape:version="1.0.1 (3bc2e813f5, 2020-09-07)">
  <sodipodi:namedview
     pagecolor="#ffffff"
     bordercolor="#666666"
     borderopacity="1"
     objecttolerance="10"
     gridtolerance="10"
     guidetolerance="10"
     inkscape:pageopacity="0"
     inkscape:pageshadow="2"
     inkscape:window-width="2704"
     inkscape:window-height="2057"
     id="namedview29"
     showgrid="false"
     fit-margin-top="0"
     fit-margin-left="0"
     fit-margin-right="0"
     fit-margin-bottom="0"
     inkscape:zoom="0.8979798"
     inkscape:cx="205.05522"
     inkscape:cy="315.82534"
     inkscape:window-x="0"
     inkscape:window-y="30"
     inkscape:window-maximized="0"
     inkscape:current-layer="svg188" />
  <defs
     id="defs182" />
  <metadata
     id="metadata185">
    <rdf:RDF>
      <cc:Work
         rdf:about="">
        <dc:format>image/svg+xml</dc:format>
        <dc:type
           rdf:resource="http://purl.org/dc/dcmitype/StillImage" />
        <dc:title></dc:title>
      </cc:Work>
    </rdf:RDF>
  </metadata>
  <g
     id="layer3"
     style="display:inline"
     transform="translate(-50.745808,-64.93788)">
    <g
       transform="matrix(0.03527778,0,0,-0.03527778,81.813945,148.33165)"
       fill="#232323"
       stroke="none"
       id="g143"
       style="display:inline;mix-blend-mode:exclusion;fill:#000000">
      <path
         d="m 1030.859,2355.3944 c -137.00001,-20 -281.00001,-72 -383.00001,-138 -76,-49 -172,-138 -203,-190 -14,-22 -29,-41 -35,-41 -5,0 -23,13 -40,29 -26,25 -40,29 -103,34 l -73,4 -49,-41 c -37,-31 -49.999999,-48 -49.999999,-68 0,-16 -4,-28 -10,-28 -5,0 -25,-20 -43,-45 -30,-39 -34.0000001,-52 -32.0000001,-94 1.0000001,-27 10.0000001,-64 20.0000001,-82 10,-19 21,-40 25,-48 3,-8 20,-19 36,-24 15.999999,-6 32.999999,-17 37.999999,-25 25,-43 41,-49 126,-47 45,2 87,8 93,14 6,6 24,11 40,11 20,0 45,14 78,40 40,34 49,48 54,84 4,26 2,52 -4,64 -6,11 -8,33 -5,50 6,28 8,29 94,40 114,16 160,15 160,0 -1,-7 -20,-34 -44,-60 -23,-27 -60,-77 -81,-113 -34,-59 -40,-65 -71,-65 -38,0 -144,-62 -144,-84 0,-7 -9,-21 -20,-31 -12,-11 -20,-31 -20,-51 0,-18 -5,-36 -11,-40 -7,-4 -9,-23 -6,-48 2,-22 1,-52 -2,-66 -6,-18 1,-41 26,-85 32,-59 43,-68 93,-79 14,-3 33,-19 42,-36 14,-24 24,-30 51,-30 23,0 41,-8 58,-26 13,-15 44,-36 69,-47.00003 25,-11 62,-35 82,-53 33,-30 117,-64 157,-64 40,0 96.00001,-24 129.00001,-56 45,-42 103,-61 200,-63 53,-2 86,-9 125,-26 43,-21 67,-25 146,-25 71,0 108,-5 153,-22 59,-21 61,-21 152,-4 60,11 109,15 143,11 46,-7 57,-4 122,30 52,28 81,50 102,82 37,53 62,111 54,123 -4,6 1,20 9,32 18,25 21,64.00003 6,73.00003 -5,3 -10,30 -10,59 0,42 -8,69 -38,127 -35,69 -40,75 -78,83 l -41,9 -22,126 c -12,69 -27,155 -33,191 -22,135 -81,287 -149,387 -163,237 -557,389 -883,342 z m 352,-78 c 143,-40 235,-80 339,-148 101,-66 152,-124 202,-228 35,-72 54,-125 46,-125 -2,0 -15,20 -29,45 -55,93 -201,225 -249,225 -29,0 -19,-14 48,-74 79,-69 141,-155 195,-267 47,-98 90,-259 90,-336 v -53 l -25,16 c -20,13 -38,15 -79,10 -39,-4 -62,-2 -85,10 -22,11 -44,14 -71,9 -27,-5 -54,-1 -84,10 -37,14 -51,15 -80,5 -28,-9 -41,-8 -63,3 -18,8 -43,11 -71,7 -33,-5 -46,-3 -59,12 -9,10 -27,18 -41,18 -13,0 -40,9 -58,20 -27,17 -46,20 -112,18 l -80,-3 -51,48 c -60,56 -104.00001,77 -162.00001,77 -26,0 -50,7 -66,20 -14,11 -35,20 -46,20 -30,0 -97,22 -97,32 0,5 9,27 20,48 31,61 120,141 209,189 77.00001,42 96.00001,59 69,62 -38,5 -85,-4 -122,-23 l -41,-20 31,33 c 46,52 56,67 50,78 -12,18 -65,-10 -105,-55 -23,-26 -44,-42 -53,-39 -7,3 -49,-4 -92,-15 -44,-11 -101,-20 -128,-20 -48,0 -49,1 -67,43 l -19,42 66,60 c 141,130 291,227 412,267 46,15 79.00001,17 200.00001,14 124,-3 161,-8 258,-35 z m -1048.00001,-306 c 8,-7 30,-20 48,-29 20,-10 38,-29 44,-47 5,-16 19,-34 29,-40 21,-11 25,-39 8,-56 -9,-9 -8,-18 5,-37 28,-44 17,-94 -27,-118 -22,-12 -85,-26 -142,-32 -16,-2 -42,-8 -57,-14 -34,-14 -55,-7 -63,19 -4,11 -22,27 -41,36 -19,9 -34,20 -34,25 0,18 -2,24 -21.999999,56 l -21,34 23,46 c 13,26 31.999999,53 41.999999,60 10,7 18,23 18,35 0,11 14,35 30,52 29,30 34,31 88,27 31,-2 64,-10 72,-17 z m 485,-415 c 25,-20 54,-32 87,-36 38,-5 58,-15 86,-42 49.00001,-46 89.00001,-62 159.00001,-62 46,0 68,-6 108,-30 28,-16 64,-30 80,-30 17,0 41,-7 54,-16 15,-11 36,-15 64,-12 23,3 57,0 76,-7 24,-8 46,-8 72,-1 30,8 45,6 77,-8 27,-12 50,-15 75,-11 26,5 48,2 73,-10 27,-13 49,-16 85,-11 38,5 54,2 81,-14 20,-12 51,-20 77,-20 38,0 48,-5 92,-49 52,-53 55,-61 38,-110 -9,-26 -8,-35 5,-50 20,-22 20,-45.00003 0,-62.00003 -11,-9 -14,-22 -9,-46 8,-46 -36,-108 -116,-163 -60,-41 -64,-42 -121,-36 -34,4 -90,2 -134,-5 -73,-13 -76,-12 -128,14 -47,24 -64,27 -151,27 -93,0 -102,2 -166,35 -64,33 -73,35 -167,35 h -98 l -48,50 -48,50 h -76.00001 -76 l -42,46 c -26,28.00003 -57,49.00003 -79,55.00003 -21,6 -55,29 -76,51 -33,32 -44,38 -67,34 -23,-5 -30,-1 -49,28 -16,25 -32,37 -58,42 -28,5 -39,15 -60,51 -26,47 -32,78 -16,87 5,3 11,23 14,43 13,92 26,128 54,150 15,13 36,31 45,41 14,14 38,17 131,19 113,3 115,2 152,-27 z"
         id="node1"
         class="node"
         style="fill:#000000" />
      <path
         d="m 1373.3704,951.37664 c -11,-11 16,-44 52,-62 47,-24 108,-36 258,-52 135,-14 232,-4 311,31 61,27 56,43 -9,33 -29,-4 -114,-7 -188,-7 -128,1 -173,8 -402,58 -9,2 -19,1 -22,-1 z"
         id="node2"
         class="node"
         style="fill:#000000" />
    </g>
  </g>
  <g
     id="layer1"
     transform="translate(-50.745808,-64.93788)">
    <path
       d="m 160.65779,140.83673 c -2.2899,-8.66398 -5.98287,-14.05491 -9.83244,-17.19611 -2.21232,-1.80521 -4.90152,0.69366 -6.9807,0.18026 -1.5316,-0.37819 -5.69056,-1.40354 -7.53042,-2.166 -2.75866,-1.14321 -1.48972,1.37663 -3.40431,0.85439 -1.20841,-0.32962 -2.67957,-2.07625 -3.6057,-1.7788 -7.54626,2.42372 -13.30649,5.56105 -18.76777,9.6356 -4.84797,3.88012 -9.63243,8.49604 -13.799613,13.24901 -1.19671,-0.9906 -2.327804,-1.81716 -3.39725,-2.48364 3.382698,-1.2155 8.193613,-3.73063 9.277353,-8.40581 0.74745,-0.13044 1.41975,-0.3482 1.97167,-0.67945 0.62654,-0.37598 0.82974,-1.18851 0.45376,-1.81505 -0.37597,-0.62626 -1.18851,-0.82973 -1.81477,-0.45376 -2.66753,1.60047 -11.237917,-1.16549 -12.490719,-2.42834 0.0545,-0.57388 0.966787,-1.78832 2.012421,-2.64345 0.565944,-0.46091 0.651669,-1.29329 0.191294,-1.85976 -0.460375,-0.56674 -1.293548,-0.65326 -1.86108,-0.19262 -0.574675,0.46699 -3.417093,2.91915 -2.932377,5.34326 0.134938,0.67496 0.63209,1.601 3.299884,2.78104 2.213504,0.97896 5.472377,1.89918 8.36586,2.06957 -1.678781,4.41907 -8.483865,6.22168 -10.055754,6.5823 -1.829594,-0.55562 -3.429,-0.48498 -4.818063,0.20717 -4.803245,2.39369 -4.295774,11.19161 -4.22222,12.18698 0.05133,0.69532 0.63156,1.22475 1.317625,1.22475 0.03254,0 0.06535,-0.001 0.09816,-0.004 0.728398,-0.0534 1.275556,-0.68739 1.22264,-1.41552 -0.0016,-0.0212 -0.148961,-2.1344 0.187854,-4.43627 0.281252,-1.9222 0.956469,-4.38256 2.577835,-5.18901 1.821656,-0.9054 4.957498,0.37968 8.895292,3.624 -2.090209,2.50904 -3.988859,5.03264 -5.614988,7.48427 -1.405995,2.11904 -2.686843,4.16824 -3.873764,6.13754 -8.8138,-5.52371 -21.690806,-10.46771 -25.959858,-12.04013 0.33311,-0.64453 0.673364,-1.27768 1.019439,-1.89442 1.215761,-2.16588 2.448719,-4.05183 3.631407,-5.67849 1.443566,0.44635 4.18465,1.17184 6.75296,1.17184 1.742281,0 3.404923,-0.33417 4.527285,-1.3163 1.376627,-1.20438 2.332302,-3.08663 3.256756,-4.9067 0.745067,-1.46711 1.870075,-3.69146 2.587096,-3.59569 0.904875,0.11298 2.662767,1.46342 4.075642,2.54821 2.518039,1.93357 4.894792,3.75946 6.940814,3.02921 0.340784,-0.12171 0.683948,-0.26961 1.01944,-0.43947 0.652198,-0.32967 0.913342,-1.12554 0.583671,-1.77747 -0.329406,-0.65194 -1.126067,-0.91361 -1.777471,-0.58367 -0.237596,0.12012 -0.478896,0.2241 -0.715963,0.30877 -0.683947,0.24606 -3.221037,-1.70075 -4.438914,-2.63605 -1.923785,-1.47743 -3.741208,-2.87284 -5.359135,-3.07525 -2.55958,-0.31856 -3.940175,2.39607 -5.274469,5.02285 -0.810419,1.59597 -1.648354,3.24617 -2.640277,4.11374 -1.264973,1.10675 -4.866746,0.67733 -7.806531,-0.11483 1.948127,-2.3913 3.635904,-4.00923 4.703498,-4.94056 0.09287,0.75856 0.113241,1.55548 0.01508,2.36405 -0.08784,0.72549 0.428889,1.38456 1.154112,1.47267 0.05397,0.006 0.107686,0.01 0.160602,0.01 0.659607,0 1.230313,-0.49265 1.311805,-1.16364 0.598487,-4.9358 -2.199482,-9.33529 -2.318809,-9.51997 -0.39661,-0.61357 -1.215231,-0.79031 -1.829064,-0.39344 -0.613569,0.39635 -0.789782,1.21524 -0.393436,1.82907 0.01244,0.0193 0.651669,1.02526 1.200415,2.54264 -1.451769,1.12025 -6.545792,5.60388 -11.674475,14.43408 -1.792287,3.0861 -4.440767,10.29521 -4.692121,11.0236 -2.967566,8.60372 -3.614737,15.79695 -1.921404,21.40665 3.097742,10.2616 8.42989,15.24979 16.301508,15.24979 2.954602,0 5.745163,-0.67522 8.207111,-1.27106 0.543189,-0.1315 1.066006,-0.25797 1.564745,-0.37015 6.141244,-1.38166 58.341681,-23.13279 74.193931,-29.76642 3.29406,-1.37822 5.94148,-4.02961 7.26334,-7.27446 1.59544,-3.91504 2.0873,-8.01357 1.46156,-12.18155 z M 60.599252,168.42007 c -0.718608,-0.14419 -1.413669,0.32147 -1.556808,1.0377 -0.180711,0.90355 -0.570971,2.07407 -1.405202,2.5191 -0.445294,0.23786 -0.942446,0.23601 -1.319742,0.17912 -1.035844,-4.49315 -1.151996,-9.86684 -0.243416,-14.93176 0.642937,-0.44662 1.574006,-0.89165 1.865841,-0.56303 0.407458,0.45799 1.076061,0.57626 1.615811,0.28601 0.712522,-0.38338 1.837266,-0.25373 2.800614,0.32147 0.480748,0.28734 1.599406,1.11284 1.599406,2.57069 0,0.4908 0.271463,0.94112 0.705644,1.16999 0.433917,0.22913 0.959379,0.1987 1.364192,-0.0783 1.132681,-0.7747 2.1209,-1.06442 2.938462,-0.86095 1.005152,0.25029 1.981994,1.26947 2.903538,3.02868 0.203729,0.38868 0.586845,0.65114 1.022614,0.70062 0.437886,0.0492 0.868098,-0.12038 1.153584,-0.4535 0.667014,-0.77734 2.124339,-1.06653 3.543035,-0.70352 0.889794,0.22754 2.960423,1.05172 3.739356,3.82958 -0.06429,0.11297 -0.129117,0.22701 -0.192881,0.33919 -5.646738,9.9232 -9.0551,15.9131 -15.387902,15.9131 -0.28866,0 -0.58764,-0.0124 -0.888206,-0.037 -2.242873,-0.18388 -4.180681,-1.4396 -5.759979,-3.73195 -0.802482,-1.16496 -1.476375,-2.56672 -2.019036,-4.13305 0.557742,-0.0394 1.163902,-0.17674 1.766623,-0.49054 1.423194,-0.7411 2.362729,-2.2061 2.792413,-4.35478 0.143139,-0.71649 -0.321469,-1.41367 -1.037961,-1.55681 z m 22.358085,-4.80113 c -1.057804,-1.76344 -2.702718,-3.02498 -4.71461,-3.53959 -1.7399,-0.44556 -3.481652,-0.26167 -4.822031,0.44953 -1.116013,-1.67191 -2.373577,-2.66647 -3.817144,-3.02604 -1.080294,-0.26935 -2.218796,-0.15928 -3.399631,0.3257 -0.467254,-1.14115 -1.328473,-2.13704 -2.491052,-2.83157 -1.455738,-0.86969 -3.158861,-1.12263 -4.568296,-0.71993 -0.66675,-0.3736 -1.468967,-0.46541 -2.338387,-0.27226 0.52361,-1.90473 1.021027,-3.15436 1.591733,-4.40399 3.897577,1.43589 17.093141,6.47303 25.776502,11.92318 -0.41619,0.71041 -0.822061,1.40944 -1.217084,2.09497 z m 73.788853,-11.59933 c -1.05833,2.59768 -3.18479,4.72361 -5.83433,5.83221 -32.56465,13.62684 -69.040637,28.56521 -73.753395,29.62566 -0.512234,0.11536 -1.048809,0.24501 -1.606021,0.37994 -2.318279,0.56092 -4.945857,1.19671 -7.584811,1.19671 -4.178035,0 -10.151268,-1.38588 -13.768387,-13.36833 -0.401902,-1.33059 -0.654315,-2.7694 -0.757767,-4.31403 0.664105,3.53933 1.835415,6.7011 3.477419,9.0842 2.02274,2.93608 4.69265,4.61936 7.722394,4.86807 0.372533,0.0304 0.744273,0.0458 1.104635,0.0458 7.871619,0 11.776604,-6.8625 17.68766,-17.2503 2.298436,-4.03913 4.903259,-8.61695 8.172979,-13.54535 4.941888,-7.45146 12.828854,-15.93585 20.583794,-22.14271 6.90039,-4.80466 12.40978,-9.30037 20.43791,-10.36306 5.20957,-0.6896 12.5663,-1.86732 16.71146,2.5469 9.90176,10.85056 9.80649,21.51523 7.40646,27.40432 z"
       id="path2"
       style="fill:#000000;stroke-width:0.264583" />
    <path
       d="m 68.105746,170.8172 c 0.290512,0.0794 0.588698,0.11483 0.889529,0.11483 2.291556,0 4.751123,-2.05555 5.272617,-2.51566 0.547952,-0.48339 0.600339,-1.31948 0.116681,-1.86743 -0.483129,-0.54769 -1.319213,-0.59981 -1.867165,-0.11668 -1.007533,0.88847 -2.910416,2.05105 -3.715808,1.8325 -1.011237,-0.27569 -2.123281,-2.01692 -2.503487,-2.81702 -0.312473,-0.65987 -1.100403,-0.94218 -1.759215,-0.63129 -0.661194,0.31115 -0.944827,1.09934 -0.633942,1.76027 0.171186,0.36327 1.742546,3.57002 4.20079,4.24048 z"
       id="path4"
       style="fill:#000000;stroke-width:0.264583" />
    <path
       d="m 76.793869,145.44948 c 2.271977,-7.29615 9.613106,-6.90272 9.935104,-6.88102 0.722048,0.0503 1.358635,-0.49636 1.411552,-1.22396 0.05265,-0.72867 -0.495036,-1.36234 -1.223963,-1.41526 -3.357033,-0.24553 -10.324306,1.26815 -12.64867,8.73363 -0.115623,0.37121 -0.05556,0.75248 0.127529,1.06283 -6.43255,-3.43191 -10.889985,-0.35718 -11.121231,-0.19129 -0.590021,0.42254 -0.724429,1.23772 -0.307711,1.83197 0.416719,0.59426 1.239838,0.73766 1.837796,0.3265 0.21934,-0.15108 5.464704,-3.61183 12.942358,3.9071 0.258498,0.25982 0.598223,0.39 0.937948,0.39 0.337344,0 0.674688,-0.12806 0.932656,-0.38497 0.518055,-0.51514 0.520436,-1.35281 0.0053,-1.87087 -1.42875,-1.43669 -2.80326,-2.5318 -4.107127,-3.35597 0.0053,0 0.01085,10e-4 0.01614,10e-4 0.563298,0 1.086114,-0.36327 1.262327,-0.93001 z"
       id="path6"
       style="fill:#000000;stroke-width:0.264583" />
    <path
       d="m 116.89147,121.48326 c 0.34581,-0.64374 0.10425,-1.44569 -0.53975,-1.7915 -0.4273,-0.22966 -10.52195,-5.56445 -14.86773,-0.39105 -1.68857,2.01004 -1.766092,4.19364 -0.21299,5.99122 0.26141,0.30295 0.6305,0.458 1.00145,0.458 0.30639,0 0.61436,-0.10584 0.86439,-0.322 0.55298,-0.47757 0.61384,-1.31313 0.13626,-1.86584 -0.50376,-0.58314 -0.82391,-1.29699 0.23681,-2.55958 2.46459,-2.9337 9.20273,-0.25771 11.5906,1.01997 0.64346,0.34607 1.44542,0.10477 1.79096,-0.53922 z"
       id="path8"
       style="fill:#000000;stroke-width:0.264583" />
    <path
       d="m 99.015958,128.14176 c 1.560252,0.37068 2.949042,0.52599 4.181742,0.52599 6.23861,0 8.46905,-3.98251 8.57779,-4.18465 0.3466,-0.64347 0.10927,-1.4523 -0.53419,-1.79864 -0.644,-0.34686 -1.44198,-0.11218 -1.78832,0.53102 -0.096,0.16854 -2.43708,4.10819 -9.825305,2.35188 -0.7112,-0.1688 -1.424252,0.27041 -1.593057,0.98134 -0.168804,0.7112 0.270405,1.42426 0.98134,1.59306 z"
       id="path10"
       style="fill:#000000;stroke-width:0.264583" />
    <path
       d="m 82.570252,118.81784 c 0.131233,0.0172 1.356254,0.1704 3.048794,0.1704 2.90486,0 7.185818,-0.45138 9.675018,-2.81597 0.520171,-0.49424 1.008857,-0.97604 1.481667,-1.44197 2.890837,-2.84904 4.509289,-4.31456 6.884719,-3.86213 0.71808,0.13573 -0.56197,-0.41618 -0.42491,-1.13399 0.13679,-0.71782 -0.47511,-0.35914 -1.19292,-0.49567 -3.849157,-0.73316 -4.232897,0.75813 -7.123735,3.60742 -0.464344,0.45747 -0.944298,0.93081 -1.447006,1.40812 -2.510367,2.38495 -8.474604,2.209 -10.560315,1.94019 -0.728397,-0.0942 -1.387739,0.41671 -1.482195,1.14088 -0.09446,0.72443 0.416189,1.38827 1.140883,1.48272 z"
       id="path12"
       style="fill:#000000;stroke-width:0.264583" />
    <path
       d="m 74.214181,127.12153 c 0.672836,0.28416 1.448859,-0.0304 1.73355,-0.70353 0.07064,-0.16775 0.944298,-0.64929 3.924565,0.0595 2.220118,0.52784 4.346045,1.42002 4.367212,1.42902 0.168011,0.0709 0.342371,0.10451 0.513821,0.10451 0.515673,0 1.00621,-0.30348 1.2192,-0.80857 0.284162,-0.67284 -0.03069,-1.44886 -0.703527,-1.73302 -0.09366,-0.0397 -2.325423,-0.9779 -4.755621,-1.55893 -3.843866,-0.91916 -6.200246,-0.42201 -7.002991,1.4777 -0.284428,0.67257 0.03069,1.44886 0.703791,1.73329 z"
       id="path14"
       style="fill:#000000;stroke-width:0.264583" />
    <path
       d="m 76.980929,121.79493 c 1.38721,0.31407 4.684183,0.98029 7.663127,0.98029 2.089679,0 4.02299,-0.32782 5.029994,-1.33483 0.516731,-0.51673 0.516731,-1.3544 0,-1.87087 -0.516202,-0.51646 -1.354402,-0.51646 -1.870604,0 -0.77179,0.77153 -5.069417,0.81307 -10.238052,-0.3548 -0.712259,-0.1606 -1.421077,0.28601 -1.581944,0.99854 -0.16166,0.71225 0.284956,1.42054 0.997479,1.58167 z"
       id="path16"
       style="fill:#000000;stroke-width:0.264583" />
    <path
       d="m 86.900158,114.6234 c 0.192881,0.0992 0.398992,0.14605 0.601927,0.14605 0.479425,0 0.942446,-0.2614 1.17819,-0.71569 0.193146,-0.3728 2.440516,-6.32593 9.365339,-6.63905 0.71305,0.15637 -0.320151,-0.51748 -0.163521,-1.23133 0.15663,-0.71385 -0.364006,-0.64629 -1.077846,-0.80292 -0.82582,-0.23626 -2.651331,0.26854 -5.683456,2.34737 -3.326341,2.28124 -4.737893,5.00645 -4.796366,5.12128 -0.3302,0.64955 -0.07197,1.44118 0.575733,1.77429 z"
       id="path18"
       style="fill:#000000;stroke-width:0.264583" />
    <path
       d="m 101.58172,115.98598 c 2.93026,-2.17805 5.24308,-3.06594 10.14105,-1.32128 0.68818,0.24553 -2.6326,-0.94166 -2.3876,-1.62958 0.24527,-0.68844 0.0796,-0.62194 -0.60861,-0.86721 -2.26536,-0.80695 -1.03387,-0.40514 -2.80448,-0.49534 -0.61443,-0.0313 1.10324,-0.14766 0.54436,-0.11106 -7.751335,0.50881 -10.25942,7.10264 -10.290429,7.18802 -0.249502,0.68659 0.104775,1.44568 0.791105,1.69518 0.149225,0.0545 0.302154,0.0802 0.452173,0.0802 0.540543,0 1.047749,-0.3339 1.243277,-0.87127 0.0074,-0.0204 0.805127,-2.0963 2.919154,-3.66766 z"
       id="path20"
       style="fill:#000000;stroke-width:0.264583" />
    <path
       d="m 121.01765,145.64051 c 0.14287,0 0.28866,-0.0233 0.43127,-0.0725 2.05052,-0.70723 3.43138,-1.84097 4.10369,-3.37 0.91307,-2.07671 0.12276,-4.01478 0.0294,-4.2291 -0.29131,-0.66992 -1.07024,-0.9771 -1.7407,-0.6858 -0.66992,0.29131 -0.97684,1.07077 -0.68553,1.7407 0.005,0.0103 0.42809,1.07791 -0.0254,2.10899 -0.36328,0.8263 -1.2192,1.47691 -2.54397,1.93358 -0.69056,0.23812 -1.05754,0.99139 -0.81942,1.68195 0.18918,0.54822 0.70194,0.89218 1.25069,0.89218 z"
       id="path26"
       style="fill:#000000;stroke-width:0.264583" />
    <path
       d="m 135.33928,134.28036 c -0.66992,0.2913 -0.97684,1.07077 -0.68553,1.74069 0.007,0.0164 0.68527,1.6682 -0.0357,3.30756 -0.55933,1.27159 -1.83806,2.2598 -3.80127,2.93661 -0.69056,0.23812 -1.05754,0.99139 -0.81942,1.68195 0.18892,0.54796 0.70168,0.89218 1.25069,0.89218 0.14287,0 0.28839,-0.0233 0.43127,-0.0725 2.68896,-0.9271 4.49236,-2.39844 5.36072,-4.37277 1.19327,-2.71303 0.0878,-5.31812 0.04,-5.42766 -0.29104,-0.67019 -1.0705,-0.9779 -1.74069,-0.68606 z"
       id="path28"
       style="fill:#000000;stroke-width:0.264583" />
    <path
       d="m 95.118116,163.81156 c -0.669925,0.29131 -0.979487,1.06442 -0.688445,1.73461 0.0045,0.0111 0.441325,1.10252 -0.03016,2.14471 -0.369094,0.81518 -1.221317,1.45786 -2.53365,1.91029 -0.690562,0.23813 -1.05754,0.9914 -0.819415,1.68196 0.188913,0.54795 0.701675,0.89218 1.250686,0.89218 0.142875,0 0.288396,-0.0233 0.431271,-0.0725 2.050521,-0.70697 3.431116,-1.84097 4.103687,-3.36973 0.913077,-2.07672 0.122767,-4.01506 0.02937,-4.2291 -0.291306,-0.67019 -1.072885,-0.98399 -1.74334,-0.69242 z"
       id="path30"
       style="fill:#000000;stroke-width:0.264583" />
    <path
       d="m 110.84204,164.64976 c -0.66993,0.29131 -0.98055,1.0623 -0.68898,1.73223 0.003,0.007 0.27702,0.70961 -0.0204,1.35863 -0.23998,0.52441 -0.81518,0.94668 -1.70947,1.25492 -0.69056,0.23813 -1.05754,0.9914 -0.81942,1.68196 0.18892,0.54795 0.70168,0.89217 1.25069,0.89217 0.14287,0 0.28839,-0.0233 0.43127,-0.0725 1.63142,-0.56251 2.73447,-1.47479 3.27819,-2.71119 0.74268,-1.68857 0.0987,-3.26734 0.0227,-3.4417 -0.29183,-0.67019 -1.075,-0.98557 -1.74466,-0.69453 z"
       id="path32"
       style="fill:#000000;stroke-width:0.264583" />
    <path
       d="m 109.00266,145.97865 c 0.91307,-2.07672 0.12276,-4.01506 0.0294,-4.2291 -0.2913,-0.66993 -1.07315,-0.9832 -1.74334,-0.69189 -0.66992,0.29131 -0.97948,1.06442 -0.68844,1.73461 0.005,0.0111 0.44132,1.10252 -0.0302,2.14471 -0.3691,0.81518 -1.22132,1.45785 -2.53365,1.91029 -0.69057,0.23813 -1.05754,0.9914 -0.81942,1.68196 0.18891,0.54795 0.70168,0.89217 1.25069,0.89217 0.14287,0 0.28839,-0.0233 0.43127,-0.0725 2.05052,-0.7075 3.43111,-1.84124 4.10369,-3.37026 z"
       id="path34"
       style="fill:#000000;stroke-width:0.264583" />
    <path
       d="m 148.66714,145.46324 c -0.66993,0.2913 -0.98134,1.06018 -0.69004,1.73037 0.002,0.005 0.20611,0.53843 -0.0148,1.01732 -0.22913,0.4961 -0.86122,0.80143 -1.35097,0.97023 -0.69056,0.23813 -1.05754,0.9914 -0.81941,1.68196 0.18891,0.54795 0.70167,0.89217 1.25068,0.89217 0.14288,0 0.2884,-0.0233 0.43128,-0.0725 1.44885,-0.49954 2.43072,-1.31525 2.91835,-2.42438 0.66807,-1.5195 0.0884,-2.9419 0.0201,-3.09906 -0.29157,-0.67019 -1.07527,-0.9869 -1.74519,-0.69612 z"
       id="path36"
       style="fill:#000000;stroke-width:0.264583" />
    <path
       d="m 149.20424,133.75728 c 0.91334,-2.07645 0.12303,-4.01479 0.0296,-4.2291 -0.2913,-0.66993 -1.07024,-0.97737 -1.74069,-0.6858 -0.66992,0.2913 -0.97684,1.07077 -0.68554,1.74069 0.005,0.0103 0.4281,1.07791 -0.0254,2.10899 -0.36353,0.8263 -1.2192,1.47691 -2.54423,1.93358 -0.69056,0.23812 -1.05754,0.99113 -0.81941,1.68196 0.18891,0.54795 0.70167,0.89217 1.25068,0.89217 0.14288,0 0.2884,-0.0233 0.43127,-0.0725 2.05079,-0.70723 3.43138,-1.84097 4.10369,-3.36999 z"
       id="path38"
       style="fill:#000000;stroke-width:0.264583" />
    <path
       d="m 124.45194,151.51346 c -0.66834,0.28496 -0.98028,1.06045 -0.70035,1.73117 0.007,0.0167 0.69003,1.69334 -0.0431,3.3274 -0.5625,1.25386 -1.8325,2.22912 -3.77454,2.89878 -0.69057,0.23812 -1.05754,0.99139 -0.81942,1.68195 0.18891,0.54796 0.70168,0.89218 1.25069,0.89218 0.14287,0 0.28839,-0.0233 0.43127,-0.0725 2.68102,-0.92445 4.47939,-2.39157 5.34511,-4.36033 1.1901,-2.70589 0.0876,-5.30384 0.04,-5.41311 -0.28972,-0.66675 -1.05992,-0.97023 -1.72958,-0.68554 z"
       id="path40"
       style="fill:#000000;stroke-width:0.264583" />
    <g
       transform="matrix(0.03527778,0,0,-0.03527778,88.194143,150.39384)"
       fill="#e5c3ba"
       stroke="none"
       id="g145" />
  </g>
</svg>
